<svg preserveAspectRatio="none" width="100%" height="100%" overflow="visible" style="display: block;" viewBox="0 0 139.811 30.001" fill="none" xmlns="http://www.w3.org/2000/svg">
<path id="Vector" d="M106.067 0.044C96.667 0.044 90.349 6.488 90.349 15.153C90.349 23.953 96.532 30.001 104.935 30.001C114.906 30.001 120.435 22.601 120.435 14.195C120.44 12.317 120.07 10.4568 119.347 8.72356C118.624 6.99029 117.562 5.41871 116.224 4.10088C114.886 2.78304 113.298 1.74543 111.554 1.04882C109.81 0.352212 107.945 0.0106022 106.067 0.044ZM105.283 27.344C98.142 27.344 93.353 22.511 93.353 15.152C93.353 7.489 98.317 2.652 105.196 2.652C113.164 2.652 117.431 8.008 117.431 14.582C117.431 22.6 112.337 27.344 105.283 27.344ZM7.358 12.54C5.85504 12.5269 4.35396 12.6494 2.873 12.906V3.169C6.799 3.056 11.689 3.022 15.413 3.269V0.653H0C0.087 2.653 0.174 5.268 0.218 8.229V29.39H6.1C13.459 29.39 16.942 25.907 16.942 20.333C16.938 15.065 13.149 12.54 7.358 12.54ZM5.7 26.952H3C2.91746 24.3111 2.87679 21.6691 2.878 19.027V15.277C4.18654 15.0504 5.51199 14.9357 6.84 14.934C11.281 14.934 14.155 16.545 14.155 20.42C14.151 24.775 11.19 26.952 5.7 26.952ZM75.675 0.653H69.1C69.187 2.653 69.274 5.268 69.318 8.229V29.39H72.192C72.061 26.647 71.974 22.99 71.974 19.027V17.676C72.7253 17.7654 73.4814 17.8098 74.238 17.809C81.988 17.809 86.125 13.977 86.125 8.409C86.125 2.841 81.248 0.653 75.675 0.653ZM74.935 15.326C73.9441 15.3188 72.9549 15.2446 71.974 15.104V2.961H74.891C80.991 2.961 83.207 5.269 83.207 8.661C83.208 13.411 79.419 15.326 74.935 15.326ZM48.679 0.044C39.786 0.044 33.658 5.806 33.017 13.76H25.472V0.653H22.6C22.687 2.653 22.774 5.268 22.818 8.229V29.39H25.692C25.561 26.647 25.474 22.99 25.474 19.027V16.11H32.989C33.419 24.384 39.453 30 47.547 30C57.518 30 63.047 22.6 63.047 14.194C63.0517 12.316 62.6816 10.456 61.9585 8.72287C61.2354 6.98971 60.1737 5.41826 58.8357 4.10053C57.4976 2.7828 55.9101 1.74528 54.1661 1.04873C52.4221 0.352182 50.5567 0.010604 48.679 0.044ZM47.895 27.344C40.754 27.344 35.965 22.511 35.965 15.152C35.965 7.489 40.929 2.652 47.808 2.652C55.776 2.652 60.043 8.008 60.043 14.582C60.044 22.6 54.949 27.344 47.9 27.344H47.895ZM139.811 15.022L132.365 22.422C129.012 25.775 127.575 27.299 125.137 29.998L122.829 28.082C125.354 25.774 126.791 24.382 130.275 20.898L136.187 15.02L130.275 9.142C126.792 5.659 125.311 4.222 122.786 1.914L125.094 0C127.532 2.7 129.013 4.267 132.365 7.62L139.811 15.022Z" fill="var(--fill-0, black)"/>
</svg>
